# Blender v2.74 (sub 0) OBJ File: ''
# www.blender.org
mtllib a-simple-3x3-grid.mtl
o Merged_Meshes
v -1.000000 -0.200000 3.000000
v -0.948200 -0.193200 3.000000
v -0.900000 -0.173200 3.000000
v -0.858600 -0.141400 3.000000
v -0.826800 -0.100000 3.000000
v -0.806800 -0.051800 3.000000
v -0.800000 0.000000 3.000000
v -0.806800 0.051800 3.000000
v -0.826800 0.100000 3.000000
v -0.858600 0.141400 3.000000
v -0.900000 0.173200 3.000000
v -0.948200 0.193200 3.000000
v -1.000000 0.200000 3.000000
v -1.051800 0.193200 3.000000
v -1.100000 0.173200 3.000000
v -1.141400 0.141400 3.000000
v -1.173200 0.100000 3.000000
v -1.193200 0.051800 3.000000
v -1.200000 0.000000 3.000000
v -1.193200 -0.051800 3.000000
v -1.173200 -0.100000 3.000000
v -1.141400 -0.141400 3.000000
v -1.100000 -0.173200 3.000000
v -1.051800 -0.193200 3.000000
v -1.000000 -0.200000 -3.000000
v -0.948200 -0.193200 -3.000000
v -0.900000 -0.173200 -3.000000
v -0.858600 -0.141400 -3.000000
v -0.826800 -0.100000 -3.000000
v -0.806800 -0.051800 -3.000000
v -0.800000 -0.000000 -3.000000
v -0.806800 0.051800 -3.000000
v -0.826800 0.100000 -3.000000
v -0.858600 0.141400 -3.000000
v -0.900000 0.173200 -3.000000
v -0.948200 0.193200 -3.000000
v -1.000000 0.200000 -3.000000
v -1.051800 0.193200 -3.000000
v -1.100000 0.173200 -3.000000
v -1.141400 0.141400 -3.000000
v -1.173200 0.100000 -3.000000
v -1.193200 0.051800 -3.000000
v -1.200000 -0.000000 -3.000000
v -1.193200 -0.051800 -3.000000
v -1.173200 -0.100000 -3.000000
v -1.141400 -0.141400 -3.000000
v -1.100000 -0.173200 -3.000000
v -1.051800 -0.193200 -3.000000
v -1.000000 0.000000 3.000000
v -1.000000 -0.000000 -3.000000
v 1.000000 -0.200000 3.000000
v 1.051800 -0.193200 3.000000
v 1.100000 -0.173200 3.000000
v 1.141400 -0.141400 3.000000
v 1.173200 -0.100000 3.000000
v 1.193200 -0.051800 3.000000
v 1.200000 0.000000 3.000000
v 1.193200 0.051800 3.000000
v 1.173200 0.100000 3.000000
v 1.141400 0.141400 3.000000
v 1.100000 0.173200 3.000000
v 1.051800 0.193200 3.000000
v 1.000000 0.200000 3.000000
v 0.948200 0.193200 3.000000
v 0.900000 0.173200 3.000000
v 0.858600 0.141400 3.000000
v 0.826800 0.100000 3.000000
v 0.806800 0.051800 3.000000
v 0.800000 0.000000 3.000000
v 0.806800 -0.051800 3.000000
v 0.826800 -0.100000 3.000000
v 0.858600 -0.141400 3.000000
v 0.900000 -0.173200 3.000000
v 0.948200 -0.193200 3.000000
v 1.000000 -0.200000 -3.000000
v 1.051800 -0.193200 -3.000000
v 1.100000 -0.173200 -3.000000
v 1.141400 -0.141400 -3.000000
v 1.173200 -0.100000 -3.000000
v 1.193200 -0.051800 -3.000000
v 1.200000 -0.000000 -3.000000
v 1.193200 0.051800 -3.000000
v 1.173200 0.100000 -3.000000
v 1.141400 0.141400 -3.000000
v 1.100000 0.173200 -3.000000
v 1.051800 0.193200 -3.000000
v 1.000000 0.200000 -3.000000
v 0.948200 0.193200 -3.000000
v 0.900000 0.173200 -3.000000
v 0.858600 0.141400 -3.000000
v 0.826800 0.100000 -3.000000
v 0.806800 0.051800 -3.000000
v 0.800000 -0.000000 -3.000000
v 0.806800 -0.051800 -3.000000
v 0.826800 -0.100000 -3.000000
v 0.858600 -0.141400 -3.000000
v 0.900000 -0.173200 -3.000000
v 0.948200 -0.193200 -3.000000
v 1.000000 0.000000 3.000000
v 1.000000 -0.000000 -3.000000
v 3.000000 -0.200000 1.000000
v 3.000000 -0.193200 0.948200
v 3.000000 -0.173200 0.900000
v 3.000000 -0.141400 0.858600
v 3.000000 -0.100000 0.826800
v 3.000000 -0.051800 0.806800
v 3.000000 0.000000 0.800000
v 3.000000 0.051800 0.806800
v 3.000000 0.100000 0.826800
v 3.000000 0.141400 0.858600
v 3.000000 0.173200 0.900000
v 3.000000 0.193200 0.948200
v 3.000000 0.200000 1.000000
v 3.000000 0.193200 1.051800
v 3.000000 0.173200 1.100000
v 3.000000 0.141400 1.141400
v 3.000000 0.100000 1.173200
v 3.000000 0.051800 1.193200
v 3.000000 0.000000 1.200000
v 3.000000 -0.051800 1.193200
v 3.000000 -0.100000 1.173200
v 3.000000 -0.141400 1.141400
v 3.000000 -0.173200 1.100000
v 3.000000 -0.193200 1.051800
v -3.000000 -0.200000 1.000000
v -3.000000 -0.193200 0.948200
v -3.000000 -0.173200 0.900000
v -3.000000 -0.141400 0.858600
v -3.000000 -0.100000 0.826800
v -3.000000 -0.051800 0.806800
v -3.000000 -0.000000 0.800000
v -3.000000 0.051800 0.806800
v -3.000000 0.100000 0.826800
v -3.000000 0.141400 0.858600
v -3.000000 0.173200 0.900000
v -3.000000 0.193200 0.948200
v -3.000000 0.200000 1.000000
v -3.000000 0.193200 1.051800
v -3.000000 0.173200 1.100000
v -3.000000 0.141400 1.141400
v -3.000000 0.100000 1.173200
v -3.000000 0.051800 1.193200
v -3.000000 -0.000000 1.200000
v -3.000000 -0.051800 1.193200
v -3.000000 -0.100000 1.173200
v -3.000000 -0.141400 1.141400
v -3.000000 -0.173200 1.100000
v -3.000000 -0.193200 1.051800
v 3.000000 0.000000 1.000000
v -3.000000 -0.000000 1.000000
v 3.000000 -0.200000 -1.000000
v 3.000000 -0.193200 -1.051800
v 3.000000 -0.173200 -1.100000
v 3.000000 -0.141400 -1.141400
v 3.000000 -0.100000 -1.173200
v 3.000000 -0.051800 -1.193200
v 3.000000 0.000000 -1.200000
v 3.000000 0.051800 -1.193200
v 3.000000 0.100000 -1.173200
v 3.000000 0.141400 -1.141400
v 3.000000 0.173200 -1.100000
v 3.000000 0.193200 -1.051800
v 3.000000 0.200000 -1.000000
v 3.000000 0.193200 -0.948200
v 3.000000 0.173200 -0.900000
v 3.000000 0.141400 -0.858600
v 3.000000 0.100000 -0.826800
v 3.000000 0.051800 -0.806800
v 3.000000 0.000000 -0.800000
v 3.000000 -0.051800 -0.806800
v 3.000000 -0.100000 -0.826800
v 3.000000 -0.141400 -0.858600
v 3.000000 -0.173200 -0.900000
v 3.000000 -0.193200 -0.948200
v -3.000000 -0.200000 -1.000000
v -3.000000 -0.193200 -1.051800
v -3.000000 -0.173200 -1.100000
v -3.000000 -0.141400 -1.141400
v -3.000000 -0.100000 -1.173200
v -3.000000 -0.051800 -1.193200
v -3.000000 -0.000000 -1.200000
v -3.000000 0.051800 -1.193200
v -3.000000 0.100000 -1.173200
v -3.000000 0.141400 -1.141400
v -3.000000 0.173200 -1.100000
v -3.000000 0.193200 -1.051800
v -3.000000 0.200000 -1.000000
v -3.000000 0.193200 -0.948200
v -3.000000 0.173200 -0.900000
v -3.000000 0.141400 -0.858600
v -3.000000 0.100000 -0.826800
v -3.000000 0.051800 -0.806800
v -3.000000 -0.000000 -0.800000
v -3.000000 -0.051800 -0.806800
v -3.000000 -0.100000 -0.826800
v -3.000000 -0.141400 -0.858600
v -3.000000 -0.173200 -0.900000
v -3.000000 -0.193200 -0.948200
v 3.000000 0.000000 -1.000000
v -3.000000 -0.000000 -1.000000
vt 0.000000 1.000000
vt 0.000000 0.000000
vt 0.041667 0.000000
vt 0.041667 1.000000
vt 0.083333 0.000000
vt 0.083333 1.000000
vt 0.125000 0.000000
vt 0.125000 1.000000
vt 0.166667 0.000000
vt 0.166667 1.000000
vt 0.208333 0.000000
vt 0.208333 1.000000
vt 0.250000 0.000000
vt 0.250000 1.000000
vt 0.291667 0.000000
vt 0.291667 1.000000
vt 0.333333 0.000000
vt 0.333333 1.000000
vt 0.375000 0.000000
vt 0.375000 1.000000
vt 0.416667 0.000000
vt 0.416667 1.000000
vt 0.458333 0.000000
vt 0.458333 1.000000
vt 0.500000 0.000000
vt 0.500000 1.000000
vt 0.541667 0.000000
vt 0.541667 1.000000
vt 0.583333 0.000000
vt 0.583333 1.000000
vt 0.625000 0.000000
vt 0.625000 1.000000
vt 0.666667 0.000000
vt 0.666667 1.000000
vt 0.708333 0.000000
vt 0.708333 1.000000
vt 0.750000 0.000000
vt 0.750000 1.000000
vt 0.791667 0.000000
vt 0.791667 1.000000
vt 0.833333 0.000000
vt 0.833333 1.000000
vt 0.875000 0.000000
vt 0.875000 1.000000
vt 0.916667 0.000000
vt 0.916667 1.000000
vt 0.958333 0.000000
vt 0.958333 1.000000
vt 1.000000 0.000000
vt 1.000000 1.000000
vn 0.000000 -1.000000 0.000000
vn 0.258900 -0.965900 0.000000
vn 0.500500 -0.865700 0.000000
vn 0.707100 -0.707100 0.000000
vn 0.865700 -0.500500 0.000000
vn 0.965900 -0.258900 0.000000
vn 1.000000 0.000000 0.000000
vn 0.965900 0.258900 0.000000
vn 0.865700 0.500500 0.000000
vn 0.707100 0.707100 0.000000
vn 0.500500 0.865700 0.000000
vn 0.258900 0.965900 0.000000
vn 0.000000 1.000000 0.000000
vn -0.258900 0.965900 0.000000
vn -0.500500 0.865700 0.000000
vn -0.707100 0.707100 0.000000
vn -0.865700 0.500500 0.000000
vn -0.965900 0.258900 0.000000
vn -1.000000 0.000000 0.000000
vn -0.965900 -0.258900 0.000000
vn -0.865700 -0.500500 0.000000
vn -0.707100 -0.707100 0.000000
vn -0.500500 -0.865700 0.000000
vn -0.258900 -0.965900 0.000000
vn 0.000000 0.000000 1.000000
vn 0.000000 0.000000 -1.000000
vn 0.000000 -0.965900 -0.258900
vn 0.000000 -0.865700 -0.500500
vn 0.000000 -0.707100 -0.707100
vn 0.000000 -0.500500 -0.865700
vn -0.000000 -0.258900 -0.965900
vn 0.000000 0.258900 -0.965900
vn 0.000000 0.500500 -0.865700
vn 0.000000 0.707100 -0.707100
vn 0.000000 0.865700 -0.500500
vn 0.000000 0.965900 -0.258900
vn 0.000000 0.965900 0.258900
vn 0.000000 0.865700 0.500500
vn 0.000000 0.707100 0.707100
vn 0.000000 0.500500 0.865700
vn -0.000000 0.258900 0.965900
vn 0.000000 -0.258900 0.965900
vn 0.000000 -0.500500 0.865700
vn 0.000000 -0.707100 0.707100
vn 0.000000 -0.865700 0.500500
vn 0.000000 -0.965900 0.258900
usemtl b0b0b0
s 1
f 1/1/1 25/2/1 26/3/2 2/4/2
f 2/4/2 26/3/2 27/5/3 3/6/3
f 3/6/3 27/5/3 28/7/4 4/8/4
f 4/8/4 28/7/4 29/9/5 5/10/5
f 5/10/5 29/9/5 30/11/6 6/12/6
f 6/12/6 30/11/6 31/13/7 7/14/7
f 7/14/7 31/13/7 32/15/8 8/16/8
f 8/16/8 32/15/8 33/17/9 9/18/9
f 9/18/9 33/17/9 34/19/10 10/20/10
f 10/20/10 34/19/10 35/21/11 11/22/11
f 11/22/11 35/21/11 36/23/12 12/24/12
f 12/24/12 36/23/12 37/25/13 13/26/13
f 13/26/13 37/25/13 38/27/14 14/28/14
f 14/28/14 38/27/14 39/29/15 15/30/15
f 15/30/15 39/29/15 40/31/16 16/32/16
f 16/32/16 40/31/16 41/33/17 17/34/17
f 17/34/17 41/33/17 42/35/18 18/36/18
f 18/36/18 42/35/18 43/37/19 19/38/19
f 19/38/19 43/37/19 44/39/20 20/40/20
f 20/40/20 44/39/20 45/41/21 21/42/21
f 21/42/21 45/41/21 46/43/22 22/44/22
f 22/44/22 46/43/22 47/45/23 23/46/23
f 23/46/23 47/45/23 48/47/24 24/48/24
f 24/48/24 48/47/24 25/49/1 1/50/1
f 1/1/25 2/4/25 49/2/25
f 2/4/25 3/6/25 49/2/25
f 3/6/25 4/8/25 49/2/25
f 4/8/25 5/10/25 49/2/25
f 5/10/25 6/12/25 49/2/25
f 6/12/25 7/14/25 49/2/25
f 7/14/25 8/16/25 49/2/25
f 8/16/25 9/18/25 49/2/25
f 9/18/25 10/20/25 49/2/25
f 10/20/25 11/22/25 49/2/25
f 11/22/25 12/24/25 49/2/25
f 12/24/25 13/26/25 49/2/25
f 13/26/25 14/28/25 49/2/25
f 14/28/25 15/30/25 49/2/25
f 15/30/25 16/32/25 49/2/25
f 16/32/25 17/34/25 49/2/25
f 17/34/25 18/36/25 49/2/25
f 18/36/25 19/38/25 49/2/25
f 19/38/25 20/40/25 49/2/25
f 20/40/25 21/42/25 49/2/25
f 21/42/25 22/44/25 49/2/25
f 22/44/25 23/46/25 49/2/25
f 23/46/25 24/48/25 49/2/25
f 24/48/25 1/50/25 49/2/25
f 26/3/26 25/2/26 50/1/26
f 27/5/26 26/3/26 50/1/26
f 28/7/26 27/5/26 50/1/26
f 29/9/26 28/7/26 50/1/26
f 30/11/26 29/9/26 50/1/26
f 31/13/26 30/11/26 50/1/26
f 32/15/26 31/13/26 50/1/26
f 33/17/26 32/15/26 50/1/26
f 34/19/26 33/17/26 50/1/26
f 35/21/26 34/19/26 50/1/26
f 36/23/26 35/21/26 50/1/26
f 37/25/26 36/23/26 50/1/26
f 38/27/26 37/25/26 50/1/26
f 39/29/26 38/27/26 50/1/26
f 40/31/26 39/29/26 50/1/26
f 41/33/26 40/31/26 50/1/26
f 42/35/26 41/33/26 50/1/26
f 43/37/26 42/35/26 50/1/26
f 44/39/26 43/37/26 50/1/26
f 45/41/26 44/39/26 50/1/26
f 46/43/26 45/41/26 50/1/26
f 47/45/26 46/43/26 50/1/26
f 48/47/26 47/45/26 50/1/26
f 25/49/26 48/47/26 50/1/26
f 51/1/1 75/2/1 76/3/2 52/4/2
f 52/4/2 76/3/2 77/5/3 53/6/3
f 53/6/3 77/5/3 78/7/4 54/8/4
f 54/8/4 78/7/4 79/9/5 55/10/5
f 55/10/5 79/9/5 80/11/6 56/12/6
f 56/12/6 80/11/6 81/13/7 57/14/7
f 57/14/7 81/13/7 82/15/8 58/16/8
f 58/16/8 82/15/8 83/17/9 59/18/9
f 59/18/9 83/17/9 84/19/10 60/20/10
f 60/20/10 84/19/10 85/21/11 61/22/11
f 61/22/11 85/21/11 86/23/12 62/24/12
f 62/24/12 86/23/12 87/25/13 63/26/13
f 63/26/13 87/25/13 88/27/14 64/28/14
f 64/28/14 88/27/14 89/29/15 65/30/15
f 65/30/15 89/29/15 90/31/16 66/32/16
f 66/32/16 90/31/16 91/33/17 67/34/17
f 67/34/17 91/33/17 92/35/18 68/36/18
f 68/36/18 92/35/18 93/37/19 69/38/19
f 69/38/19 93/37/19 94/39/20 70/40/20
f 70/40/20 94/39/20 95/41/21 71/42/21
f 71/42/21 95/41/21 96/43/22 72/44/22
f 72/44/22 96/43/22 97/45/23 73/46/23
f 73/46/23 97/45/23 98/47/24 74/48/24
f 74/48/24 98/47/24 75/49/1 51/50/1
f 51/1/25 52/4/25 99/2/25
f 52/4/25 53/6/25 99/2/25
f 53/6/25 54/8/25 99/2/25
f 54/8/25 55/10/25 99/2/25
f 55/10/25 56/12/25 99/2/25
f 56/12/25 57/14/25 99/2/25
f 57/14/25 58/16/25 99/2/25
f 58/16/25 59/18/25 99/2/25
f 59/18/25 60/20/25 99/2/25
f 60/20/25 61/22/25 99/2/25
f 61/22/25 62/24/25 99/2/25
f 62/24/25 63/26/25 99/2/25
f 63/26/25 64/28/25 99/2/25
f 64/28/25 65/30/25 99/2/25
f 65/30/25 66/32/25 99/2/25
f 66/32/25 67/34/25 99/2/25
f 67/34/25 68/36/25 99/2/25
f 68/36/25 69/38/25 99/2/25
f 69/38/25 70/40/25 99/2/25
f 70/40/25 71/42/25 99/2/25
f 71/42/25 72/44/25 99/2/25
f 72/44/25 73/46/25 99/2/25
f 73/46/25 74/48/25 99/2/25
f 74/48/25 51/50/25 99/2/25
f 76/3/26 75/2/26 100/1/26
f 77/5/26 76/3/26 100/1/26
f 78/7/26 77/5/26 100/1/26
f 79/9/26 78/7/26 100/1/26
f 80/11/26 79/9/26 100/1/26
f 81/13/26 80/11/26 100/1/26
f 82/15/26 81/13/26 100/1/26
f 83/17/26 82/15/26 100/1/26
f 84/19/26 83/17/26 100/1/26
f 85/21/26 84/19/26 100/1/26
f 86/23/26 85/21/26 100/1/26
f 87/25/26 86/23/26 100/1/26
f 88/27/26 87/25/26 100/1/26
f 89/29/26 88/27/26 100/1/26
f 90/31/26 89/29/26 100/1/26
f 91/33/26 90/31/26 100/1/26
f 92/35/26 91/33/26 100/1/26
f 93/37/26 92/35/26 100/1/26
f 94/39/26 93/37/26 100/1/26
f 95/41/26 94/39/26 100/1/26
f 96/43/26 95/41/26 100/1/26
f 97/45/26 96/43/26 100/1/26
f 98/47/26 97/45/26 100/1/26
f 75/49/26 98/47/26 100/1/26
f 101/1/1 125/2/1 126/3/27 102/4/27
f 102/4/27 126/3/27 127/5/28 103/6/28
f 103/6/28 127/5/28 128/7/29 104/8/29
f 104/8/29 128/7/29 129/9/30 105/10/30
f 105/10/30 129/9/30 130/11/31 106/12/31
f 106/12/31 130/11/31 131/13/26 107/14/26
f 107/14/26 131/13/26 132/15/32 108/16/32
f 108/16/32 132/15/32 133/17/33 109/18/33
f 109/18/33 133/17/33 134/19/34 110/20/34
f 110/20/34 134/19/34 135/21/35 111/22/35
f 111/22/35 135/21/35 136/23/36 112/24/36
f 112/24/36 136/23/36 137/25/13 113/26/13
f 113/26/13 137/25/13 138/27/37 114/28/37
f 114/28/37 138/27/37 139/29/38 115/30/38
f 115/30/38 139/29/38 140/31/39 116/32/39
f 116/32/39 140/31/39 141/33/40 117/34/40
f 117/34/40 141/33/40 142/35/41 118/36/41
f 118/36/41 142/35/41 143/37/25 119/38/25
f 119/38/25 143/37/25 144/39/42 120/40/42
f 120/40/42 144/39/42 145/41/43 121/42/43
f 121/42/43 145/41/43 146/43/44 122/44/44
f 122/44/44 146/43/44 147/45/45 123/46/45
f 123/46/45 147/45/45 148/47/46 124/48/46
f 124/48/46 148/47/46 125/49/1 101/50/1
f 101/1/7 102/4/7 149/2/7
f 102/4/7 103/6/7 149/2/7
f 103/6/7 104/8/7 149/2/7
f 104/8/7 105/10/7 149/2/7
f 105/10/7 106/12/7 149/2/7
f 106/12/7 107/14/7 149/2/7
f 107/14/7 108/16/7 149/2/7
f 108/16/7 109/18/7 149/2/7
f 109/18/7 110/20/7 149/2/7
f 110/20/7 111/22/7 149/2/7
f 111/22/7 112/24/7 149/2/7
f 112/24/7 113/26/7 149/2/7
f 113/26/7 114/28/7 149/2/7
f 114/28/7 115/30/7 149/2/7
f 115/30/7 116/32/7 149/2/7
f 116/32/7 117/34/7 149/2/7
f 117/34/7 118/36/7 149/2/7
f 118/36/7 119/38/7 149/2/7
f 119/38/7 120/40/7 149/2/7
f 120/40/7 121/42/7 149/2/7
f 121/42/7 122/44/7 149/2/7
f 122/44/7 123/46/7 149/2/7
f 123/46/7 124/48/7 149/2/7
f 124/48/7 101/50/7 149/2/7
f 126/3/19 125/2/19 150/1/19
f 127/5/19 126/3/19 150/1/19
f 128/7/19 127/5/19 150/1/19
f 129/9/19 128/7/19 150/1/19
f 130/11/19 129/9/19 150/1/19
f 131/13/19 130/11/19 150/1/19
f 132/15/19 131/13/19 150/1/19
f 133/17/19 132/15/19 150/1/19
f 134/19/19 133/17/19 150/1/19
f 135/21/19 134/19/19 150/1/19
f 136/23/19 135/21/19 150/1/19
f 137/25/19 136/23/19 150/1/19
f 138/27/19 137/25/19 150/1/19
f 139/29/19 138/27/19 150/1/19
f 140/31/19 139/29/19 150/1/19
f 141/33/19 140/31/19 150/1/19
f 142/35/19 141/33/19 150/1/19
f 143/37/19 142/35/19 150/1/19
f 144/39/19 143/37/19 150/1/19
f 145/41/19 144/39/19 150/1/19
f 146/43/19 145/41/19 150/1/19
f 147/45/19 146/43/19 150/1/19
f 148/47/19 147/45/19 150/1/19
f 125/49/19 148/47/19 150/1/19
f 151/1/1 175/2/1 176/3/27 152/4/27
f 152/4/27 176/3/27 177/5/28 153/6/28
f 153/6/28 177/5/28 178/7/29 154/8/29
f 154/8/29 178/7/29 179/9/30 155/10/30
f 155/10/30 179/9/30 180/11/31 156/12/31
f 156/12/31 180/11/31 181/13/26 157/14/26
f 157/14/26 181/13/26 182/15/32 158/16/32
f 158/16/32 182/15/32 183/17/33 159/18/33
f 159/18/33 183/17/33 184/19/34 160/20/34
f 160/20/34 184/19/34 185/21/35 161/22/35
f 161/22/35 185/21/35 186/23/36 162/24/36
f 162/24/36 186/23/36 187/25/13 163/26/13
f 163/26/13 187/25/13 188/27/37 164/28/37
f 164/28/37 188/27/37 189/29/38 165/30/38
f 165/30/38 189/29/38 190/31/39 166/32/39
f 166/32/39 190/31/39 191/33/40 167/34/40
f 167/34/40 191/33/40 192/35/41 168/36/41
f 168/36/41 192/35/41 193/37/25 169/38/25
f 169/38/25 193/37/25 194/39/42 170/40/42
f 170/40/42 194/39/42 195/41/43 171/42/43
f 171/42/43 195/41/43 196/43/44 172/44/44
f 172/44/44 196/43/44 197/45/45 173/46/45
f 173/46/45 197/45/45 198/47/46 174/48/46
f 174/48/46 198/47/46 175/49/1 151/50/1
f 151/1/7 152/4/7 199/2/7
f 152/4/7 153/6/7 199/2/7
f 153/6/7 154/8/7 199/2/7
f 154/8/7 155/10/7 199/2/7
f 155/10/7 156/12/7 199/2/7
f 156/12/7 157/14/7 199/2/7
f 157/14/7 158/16/7 199/2/7
f 158/16/7 159/18/7 199/2/7
f 159/18/7 160/20/7 199/2/7
f 160/20/7 161/22/7 199/2/7
f 161/22/7 162/24/7 199/2/7
f 162/24/7 163/26/7 199/2/7
f 163/26/7 164/28/7 199/2/7
f 164/28/7 165/30/7 199/2/7
f 165/30/7 166/32/7 199/2/7
f 166/32/7 167/34/7 199/2/7
f 167/34/7 168/36/7 199/2/7
f 168/36/7 169/38/7 199/2/7
f 169/38/7 170/40/7 199/2/7
f 170/40/7 171/42/7 199/2/7
f 171/42/7 172/44/7 199/2/7
f 172/44/7 173/46/7 199/2/7
f 173/46/7 174/48/7 199/2/7
f 174/48/7 151/50/7 199/2/7
f 176/3/19 175/2/19 200/1/19
f 177/5/19 176/3/19 200/1/19
f 178/7/19 177/5/19 200/1/19
f 179/9/19 178/7/19 200/1/19
f 180/11/19 179/9/19 200/1/19
f 181/13/19 180/11/19 200/1/19
f 182/15/19 181/13/19 200/1/19
f 183/17/19 182/15/19 200/1/19
f 184/19/19 183/17/19 200/1/19
f 185/21/19 184/19/19 200/1/19
f 186/23/19 185/21/19 200/1/19
f 187/25/19 186/23/19 200/1/19
f 188/27/19 187/25/19 200/1/19
f 189/29/19 188/27/19 200/1/19
f 190/31/19 189/29/19 200/1/19
f 191/33/19 190/31/19 200/1/19
f 192/35/19 191/33/19 200/1/19
f 193/37/19 192/35/19 200/1/19
f 194/39/19 193/37/19 200/1/19
f 195/41/19 194/39/19 200/1/19
f 196/43/19 195/41/19 200/1/19
f 197/45/19 196/43/19 200/1/19
f 198/47/19 197/45/19 200/1/19
f 175/49/19 198/47/19 200/1/19
